# File created by Blade
# Date/Time:  Thu Jan 22 16:10:14 2015
# Frame Rate: 120.000 fps
#------------------------------------------------------
:FULLY-SPECIFIED
:DEGREES
703
root -0.909043 33.746186 -2.148926 31.339534 29.987771 -17.599283
RightUpLeg -30.489676 -23.839469 10.337480
RightLeg -7.655536 -0.000000 0.000000
RightFoot -5.686017 -33.692750 32.460136
RightToeBase 14.121083 -0.000000 -0.000000
LeftUpLeg -59.934792 15.675508 37.838381
LeftLeg 15.078364 -0.000000 -0.000000
LeftFoot 4.912765 6.308390 -37.107083
LeftToeBase 10.163126 -0.000000 -0.000000
Spine 51.394792 -1.970210 -49.936476
RightShoulder -3.966014 -4.452460 -42.703801
RightArm -10.132838 20.564633 15.176966
RightForeArm 16.092606 -0.000000 16.556336
RightHand 7.104817 -0.000000 -32.425452
RightHandThumb1 -24.326973 -0.000000 -32.862282
LeftShoulder -0.486031 19.459125 32.998353
LeftArm 48.997824 -52.557679 -41.431777
LeftForeArm 35.464574 -0.000000 5.738720
LeftHand -19.644165 -0.000000 -4.285177
LeftHandThumb1 -26.253704 0.000000 33.147579
Head -7.994004 -20.912539 -32.816280
704
root -0.907667 33.745538 -2.149147 31.333226 29.997363 -17.616699
RightUpLeg -30.486910 -23.838529 10.347816
RightLeg -7.664440 -0.000000 0.000000
RightFoot -5.708260 -33.686418 32.516515
RightToeBase 13.996312 -0.000000 -0.000000
LeftUpLeg -59.960105 15.671033 37.859032
LeftLeg 15.121371 -0.000000 -0.000000
LeftFoot 4.888293 6.324198 -37.130324
LeftToeBase 10.251829 -0.000000 -0.000000
Spine 51.399354 -2.075570 -49.990313
RightShoulder -3.968910 -4.504151 -42.669233
RightArm -10.111227 20.605442 15.112692
RightForeArm 16.114780 -0.000000 16.569507
RightHand 7.005070 -0.000000 -32.430809
RightHandThumb1 -24.326973 -0.000000 -32.862282
LeftShoulder -0.530272 19.441012 32.964874
LeftArm 48.921779 -52.561949 -41.526044
LeftForeArm 35.491647 -0.000000 5.821371
LeftHand -19.683167 -0.000000 -4.335652
LeftHandThumb1 -26.253704 0.000000 33.147579
Head -7.963142 -20.756789 -32.909542
705
root -0.906249 33.744901 -2.148707 31.329338 30.020757 -17.618373
RightUpLeg -30.467632 -23.833509 10.332272
RightLeg -7.669879 -0.000000 0.000000
RightFoot -5.600296 -33.741255 32.413548
RightToeBase 13.975690 -0.000000 -0.000000
LeftUpLeg -59.994528 15.666163 37.844228
LeftLeg 15.154628 -0.000000 -0.000000
LeftFoot 4.858609 6.316730 -37.079710
LeftToeBase 10.337623 -0.000000 -0.000000
Spine 51.413214 -2.172831 -50.030275
RightShoulder -3.967038 -4.530077 -42.664579
RightArm -10.134720 20.604017 15.073275
RightForeArm 16.212671 0.000000 16.588315
RightHand 7.178650 -0.000000 -32.431357
RightHandThumb1 -24.326973 -0.000000 -32.862282
LeftShoulder -0.528749 19.395361 32.948155
LeftArm 48.836925 -52.580059 -41.634251
LeftForeArm 35.714283 -0.000000 5.949894
LeftHand -19.751539 -0.000000 -4.528175
LeftHandThumb1 -26.253704 0.000000 33.147579
Head -7.895542 -20.644125 -33.014463
706
root -0.903960 33.744297 -2.148858 31.322377 30.029266 -17.617447
RightUpLeg -30.445258 -23.813570 10.300396
RightLeg -7.673282 -0.000000 0.000000
RightFoot -5.628354 -33.764621 32.480553
RightToeBase 13.928513 -0.000000 -0.000000
LeftUpLeg -60.013380 15.640352 37.860267
LeftLeg 15.199149 -0.000000 -0.000000
LeftFoot 4.855899 6.332800 -37.111072
LeftToeBase 10.230421 -0.000000 -0.000000
Spine 51.419110 -2.260235 -50.067990
RightShoulder -3.953272 -4.542203 -42.696216
RightArm -10.206169 20.638956 15.044462
RightForeArm 16.138766 -0.000000 16.677808
RightHand 7.044163 -0.000000 -32.452156
RightHandThumb1 -24.326973 -0.000000 -32.862282
LeftShoulder -0.496280 19.301672 32.923315
LeftArm 48.673903 -52.583513 -41.656892
LeftForeArm 35.914390 0.000000 6.069221
LeftHand -19.827195 -0.000000 -4.523118
LeftHandThumb1 -26.253704 0.000000 33.147579
Head -7.792389 -20.556344 -33.135445
707
root -0.902576 33.745379 -2.148754 31.313430 30.033177 -17.614902
RightUpLeg -30.418776 -23.774886 10.263937
RightLeg -7.675946 -0.000000 0.000000
RightFoot -5.692417 -33.794013 32.534993
RightToeBase 13.900052 -0.000000 -0.000000
LeftUpLeg -60.029809 15.641310 37.838653
LeftLeg 15.228122 -0.000000 -0.000000
LeftFoot 4.857202 6.330581 -37.115901
LeftToeBase 10.334379 -0.000000 -0.000000
Spine 51.432031 -2.329451 -50.118481
RightShoulder -3.950915 -4.521470 -42.698417
RightArm -10.259517 20.641618 14.998842
RightForeArm 16.205516 -0.000000 16.715424
RightHand 7.157592 -0.000000 -32.528359
RightHandThumb1 -24.326973 -0.000000 -32.862282
LeftShoulder -0.487158 19.229272 32.934500
LeftArm 48.580829 -52.576760 -41.724403
LeftForeArm 36.084586 -0.000000 6.150039
LeftHand -19.917388 -0.000000 -4.503014
LeftHandThumb1 -26.253704 0.000000 33.147579
Head -7.715118 -20.449869 -33.193507
708
root -0.899005 33.746283 -2.149176 31.303975 30.036857 -17.594506
RightUpLeg -30.410281 -23.796281 10.245321
RightLeg -7.668951 -0.000000 0.000000
RightFoot -5.758078 -33.796829 32.613027
RightToeBase 13.941576 -0.000000 -0.000000
LeftUpLeg -60.035932 15.614259 37.820233
LeftLeg 15.247103 -0.000000 -0.000000
LeftFoot 4.851150 6.349597 -37.084481
LeftToeBase 10.311987 -0.000000 -0.000000
Spine 51.455816 -2.390482 -50.170687
RightShoulder -3.971316 -4.485045 -42.738085
RightArm -10.304231 20.695675 14.994288
RightForeArm 16.061324 -0.000000 16.770270
RightHand 7.140924 -0.000000 -32.651416
RightHandThumb1 -24.326973 -0.000000 -32.862282
LeftShoulder -0.452794 19.132796 32.950127
LeftArm 48.432360 -52.535416 -41.691720
LeftForeArm 36.167125 -0.000000 6.155972
LeftHand -20.011902 -0.000000 -4.426409
LeftHandThumb1 -26.253704 0.000000 33.147579
Head -7.608165 -20.366705 -33.224885
709
root -0.895724 33.746780 -2.150622 31.296219 30.031281 -17.576252
RightUpLeg -30.399039 -23.787862 10.209895
RightLeg -7.647860 -0.000000 0.000000
RightFoot -5.641215 -33.879304 32.433810
RightToeBase 13.788320 -0.000000 -0.000000
LeftUpLeg -60.050247 15.610181 37.780992
LeftLeg 15.286972 -0.000000 -0.000000
LeftFoot 4.863813 6.335937 -37.094402
LeftToeBase 10.235404 -0.000000 -0.000000
Spine 51.467332 -2.446240 -50.218716
RightShoulder -3.989394 -4.487224 -42.777349
RightArm -10.343109 20.765384 14.981020
RightForeArm 16.057829 0.000000 16.804957
RightHand 7.206913 -0.000000 -32.700385
RightHandThumb1 -24.326973 -0.000000 -32.862282
LeftShoulder -0.404399 19.061257 32.990362
LeftArm 48.319284 -52.499638 -41.685420
LeftForeArm 36.253514 -0.000000 6.109601
LeftHand -20.181482 -0.000000 -4.357863
LeftHandThumb1 -26.253704 0.000000 33.147579
Head -7.506436 -20.293662 -33.257057
710
root -0.893313 33.747512 -2.150918 31.275202 30.010313 -17.571261
RightUpLeg -30.379674 -23.775837 10.188246
RightLeg -7.648299 -0.000000 0.000000
RightFoot -5.718825 -33.876945 32.523830
RightToeBase 13.886497 -0.000000 -0.000000
LeftUpLeg -60.054680 15.646417 37.710534
LeftLeg 15.319026 -0.000000 -0.000000
LeftFoot 4.877573 6.296777 -37.052018
LeftToeBase 10.395821 -0.000000 -0.000000
Spine 51.470045 -2.495365 -50.281336
RightShoulder -4.003448 -4.452499 -42.812722
RightArm -10.329494 20.764951 14.975184
RightForeArm 16.099881 -0.000000 16.770367
RightHand 7.270027 -0.000000 -32.926441
RightHandThumb1 -24.326973 -0.000000 -32.862282
LeftShoulder -0.353205 19.018067 33.034589
LeftArm 48.116632 -52.429416 -41.548386
LeftForeArm 36.292911 -0.000000 6.007051
LeftHand -20.317712 0.000000 -4.219713
LeftHandThumb1 -26.253704 0.000000 33.147579
Head -7.430369 -20.213912 -33.287836
